<?xml version="1.0" standalone="no"?>
<!DOCTYPE svg PUBLIC "-//W3C//DTD SVG 20010904//EN"
 "http://www.w3.org/TR/2001/REC-SVG-20010904/DTD/svg10.dtd">
<svg version="1.0" xmlns="http://www.w3.org/2000/svg"
 width="398.000000pt" height="398.000000pt" viewBox="0 0 398.000000 398.000000"
 preserveAspectRatio="xMidYMid meet">
<metadata>
Created by potrace 1.11, written by Peter Selinger 2001-2013
</metadata>
<g transform="translate(0.000000,398.000000) scale(0.100000,-0.100000)"
fill="#000000" stroke="none">
<path d="M1126 1776 c-26 -21 -63 -51 -81 -67 -17 -16 -54 -40 -81 -54 -27
-13 -73 -46 -103 -71 l-53 -48 -19 25 c-10 13 -19 27 -19 32 0 19 -20 4 -20
-15 -1 -35 -37 -107 -76 -151 -41 -45 -63 -90 -66 -139 -1 -23 -13 -44 -39
-70 -41 -42 -63 -106 -61 -177 4 -187 27 -395 54 -500 2 -6 -8 -17 -21 -24
-42 -21 -63 -60 -66 -121 -3 -59 21 -170 49 -223 16 -32 16 -33 -5 -33 -11 0
-33 -6 -47 -14 -15 -8 -40 -17 -55 -21 -25 -5 -117 -83 -117 -98 0 -4 738 -7
1640 -7 1310 0 1640 2 1641 12 0 7 2 20 3 28 3 15 12 103 21 210 3 30 7 73 10
96 8 57 8 355 0 434 -21 215 -93 423 -199 575 -159 228 -348 357 -516 351 -36
-1 -83 4 -105 12 -49 17 -166 18 -225 2 -115 -31 -223 -98 -347 -214 -62 -58
-166 -176 -200 -225 -7 -10 -73 66 -73 84 0 55 -23 95 -98 172 -42 44 -93 90
-112 103 -19 13 -54 42 -78 64 -47 45 -56 42 -68 -22 -5 -26 -10 -32 -23 -26
-9 4 -50 18 -91 31 -41 13 -112 37 -157 52 -46 15 -83 25 -83 22 0 -3 11 -25
25 -48 27 -49 15 -57 -31 -21 -38 29 -48 46 -54 87 l-5 34 -49 -37z"/>
</g>
</svg>
